<svg width="24" height="24" viewBox="0 0 24 24" fill="none" xmlns="http://www.w3.org/2000/svg">
<mask id="path-1-inside-1_2551_1583" fill="white">
<path d="M12 1C18.0751 1 23 5.92487 23 12C23 14.0572 22.4331 15.9811 21.4502 17.6279L22.8477 22.8408L17.6377 21.4443C15.9887 22.4308 14.0612 23 12 23C5.92487 23 1 18.0751 1 12C1 5.92487 5.92487 1 12 1Z"/>
</mask>
<path d="M21.4502 17.6279L19.9045 16.7055C19.6552 17.1232 19.5856 17.6241 19.7116 18.094L21.4502 17.6279ZM22.8477 22.8408L22.3816 24.5794C23.0028 24.746 23.6657 24.5684 24.1205 24.1136C24.5752 23.6588 24.7528 22.9959 24.5863 22.3747L22.8477 22.8408ZM17.6377 21.4443L18.1037 19.7057C17.6332 19.5796 17.1317 19.6496 16.7136 19.8996L17.6377 21.4443ZM12 1V2.8C17.081 2.8 21.2 6.91898 21.2 12H23H24.8C24.8 4.93076 19.0692 -0.8 12 -0.8V1ZM23 12H21.2C21.2 13.7219 20.7264 15.3284 19.9045 16.7055L21.4502 17.6279L22.9958 18.5504C24.1397 16.6338 24.8 14.3925 24.8 12H23ZM21.4502 17.6279L19.7116 18.094L21.109 23.3069L22.8477 22.8408L24.5863 22.3747L23.1888 17.1618L21.4502 17.6279ZM22.8477 22.8408L23.3137 21.1022L18.1037 19.7057L17.6377 21.4443L17.1717 23.183L22.3816 24.5794L22.8477 22.8408ZM17.6377 21.4443L16.7136 19.8996C15.3347 20.7245 13.7253 21.2 12 21.2V23V24.8C14.3972 24.8 16.6427 24.1371 18.5618 22.989L17.6377 21.4443ZM12 23V21.2C6.91898 21.2 2.8 17.081 2.8 12H1H-0.8C-0.8 19.0692 4.93076 24.8 12 24.8V23ZM1 12H2.8C2.8 6.91898 6.91898 2.8 12 2.8V1V-0.8C4.93076 -0.8 -0.8 4.93076 -0.8 12H1Z" fill="black" mask="url(#path-1-inside-1_2551_1583)"/>
</svg>
