<svg width="25" height="26" viewBox="0 0 25 26" fill="none" xmlns="http://www.w3.org/2000/svg">
<path d="M12.5 16.25C14.2259 16.25 15.625 14.7949 15.625 13C15.625 11.2051 14.2259 9.75 12.5 9.75C10.7741 9.75 9.375 11.2051 9.375 13C9.375 14.7949 10.7741 16.25 12.5 16.25Z" stroke="#171717" stroke-width="1.5" stroke-miterlimit="10" stroke-linecap="round" stroke-linejoin="round"/>
<path d="M2.08333 13.9533V12.0467C2.08333 10.92 2.96875 9.98835 4.0625 9.98835C5.94792 9.98835 6.71875 8.60168 5.77083 6.90085C5.22917 5.92585 5.55208 4.65835 6.5 4.09501L8.30208 3.02251C9.125 2.51335 10.1875 2.81668 10.6771 3.67251L10.7917 3.87835C11.7292 5.57918 13.2708 5.57918 14.2187 3.87835L14.3333 3.67251C14.8229 2.81668 15.8854 2.51335 16.7083 3.02251L18.5104 4.09501C19.4583 4.65835 19.7812 5.92585 19.2396 6.90085C18.2917 8.60168 19.0625 9.98835 20.9479 9.98835C22.0312 9.98835 22.9271 10.9092 22.9271 12.0467V13.9533C22.9271 15.08 22.0417 16.0117 20.9479 16.0117C19.0625 16.0117 18.2917 17.3983 19.2396 19.0992C19.7812 20.085 19.4583 21.3417 18.5104 21.905L16.7083 22.9775C15.8854 23.4867 14.8229 23.1833 14.3333 22.3275L14.2187 22.1217C13.2812 20.4208 11.7396 20.4208 10.7917 22.1217L10.6771 22.3275C10.1875 23.1833 9.125 23.4867 8.30208 22.9775L6.5 21.905C5.55208 21.3417 5.22917 20.0742 5.77083 19.0992C6.71875 17.3983 5.94792 16.0117 4.0625 16.0117C2.96875 16.0117 2.08333 15.08 2.08333 13.9533Z" stroke="#171717" stroke-width="1.5" stroke-miterlimit="10" stroke-linecap="round" stroke-linejoin="round"/>
</svg>
