<svg width="24" height="24" viewBox="0 0 24 24" fill="none" xmlns="http://www.w3.org/2000/svg">
<path d="M2 9H4V12C4 12.2652 4.10536 12.5196 4.29289 12.7071C4.48043 12.8946 4.73478 13 5 13H11V15H9C8.73478 15 8.48043 15.1054 8.29289 15.2929C8.10536 15.4804 8 15.7348 8 16V22C8 22.2652 8.10536 22.5196 8.29289 22.7071C8.48043 22.8946 8.73478 23 9 23H15C15.2652 23 15.5196 22.8946 15.7071 22.7071C15.8946 22.5196 16 22.2652 16 22V16C16 15.7348 15.8946 15.4804 15.7071 15.2929C15.5196 15.1054 15.2652 15 15 15H13V13H19C19.2652 13 19.5196 12.8946 19.7071 12.7071C19.8946 12.5196 20 12.2652 20 12V9H22C22.2652 9 22.5196 8.89464 22.7071 8.70711C22.8946 8.51957 23 8.26522 23 8V2C23 1.73478 22.8946 1.48043 22.7071 1.29289C22.5196 1.10536 22.2652 1 22 1H16C15.7348 1 15.4804 1.10536 15.2929 1.29289C15.1054 1.48043 15 1.73478 15 2V8C15 8.26522 15.1054 8.51957 15.2929 8.70711C15.4804 8.89464 15.7348 9 16 9H18V11H6V9H8C8.26522 9 8.51957 8.89464 8.70711 8.70711C8.89464 8.51957 9 8.26522 9 8V2C9 1.73478 8.89464 1.48043 8.70711 1.29289C8.51957 1.10536 8.26522 1 8 1H2C1.73478 1 1.48043 1.10536 1.29289 1.29289C1.10536 1.48043 1 1.73478 1 2V8C1 8.26522 1.10536 8.51957 1.29289 8.70711C1.48043 8.89464 1.73478 9 2 9ZM17 7V3H21V7H17ZM14 17V21H10V17H14ZM3 3H7V7H3V3Z" fill="black"/>
</svg>
